# xmcd
#
# Track frame offsets:
#	182
#	11750
#	24532
#	39705
#	50980
#	63505
#	77707
#	93780
#	104107
#	118390
#	129127
#	141807
#	151632
#	161830
#	169445
#	178222
#	188832
#	197407
#
# Disc length: 2756 seconds
#
# Revision: 1
# Processed by: cddbd v1.5.1PL2 Copyright (c) Steve Scherf et al.
# Submitted via: EasyCDDAExtractor 6.0.0.1
#
DISCID=fe0ac212
DTITLE=Willie Nelson - Country Music CM006
DYEAR=1999
DGENRE=Country
TTITLE0=December Day
TTITLE1=Any Old Arm Won't Do
TTITLE2=And So Will You My Love
TTITLE3=Blame It On The Times
TTITLE4=End Of Understanding
TTITLE5=Everything But You
TTITLE6=Face Of A Fighter
TTITLE7=Building Heartaches
TTITLE8=A Moment Isn't Very Long
TTITLE9=A New Way To Cry
TTITLE10=Country Willie
TTITLE11=Ashamed
TTITLE12=Broken Promises
TTITLE13=Both Ends Of The Candle
TTITLE14=Slow Down Old World
TTITLE15=Healing Hands Of Time
TTITLE16=Things To Remember
TTITLE17=One Step Beyond
EXTD=
EXTT0=
EXTT1=
EXTT2=
EXTT3=
EXTT4=
EXTT5=
EXTT6=
EXTT7=
EXTT8=
EXTT9=
EXTT10=
EXTT11=
EXTT12=
EXTT13=
EXTT14=
EXTT15=
EXTT16=
EXTT17=
PLAYORDER=
